<?xml version="1.0" encoding="UTF-8" standalone="no"?>
<svg
   xmlns:dc="http://purl.org/dc/elements/1.1/"
   xmlns:cc="http://creativecommons.org/ns#"
   xmlns:rdf="http://www.w3.org/1999/02/22-rdf-syntax-ns#"
   xmlns:svg="http://www.w3.org/2000/svg"
   xmlns="http://www.w3.org/2000/svg"
   xmlns:sodipodi="http://sodipodi.sourceforge.net/DTD/sodipodi-0.dtd"
   xmlns:inkscape="http://www.inkscape.org/namespaces/inkscape"
   inkscape:version="1.0 (4035a4fb49, 2020-05-01)"
   sodipodi:docname="poweroff_white.svg"
   id="svg9"
   width="16px"
   viewBox="0 0 16 16"
   version="1.1"
   height="16px">
  <metadata
     id="metadata13">
    <rdf:RDF>
      <cc:Work
         rdf:about="">
        <dc:format>image/svg+xml</dc:format>
        <dc:type
           rdf:resource="http://purl.org/dc/dcmitype/StillImage" />
        <dc:title></dc:title>
      </cc:Work>
    </rdf:RDF>
  </metadata>
  <sodipodi:namedview
     inkscape:current-layer="svg9"
     inkscape:window-maximized="1"
     inkscape:window-y="38"
     inkscape:window-x="0"
     inkscape:cy="8"
     inkscape:cx="8"
     inkscape:zoom="45.9375"
     showgrid="false"
     id="namedview11"
     inkscape:window-height="1000"
     inkscape:window-width="1916"
     inkscape:pageshadow="2"
     inkscape:pageopacity="0"
     guidetolerance="10"
     gridtolerance="10"
     objecttolerance="10"
     borderopacity="1"
     bordercolor="#666666"
     pagecolor="#ffffff" />
  <defs
     id="defs4">
    <filter
       id="filter1016"
       inkscape:label="Lightness-Contrast"
       style="color-interpolation-filters:sRGB;">
      <feColorMatrix
         id="feColorMatrix1014"
         values="1 0 0 1 -0 0 1 0 1 -0 0 0 1 1 -0 0 0 0 1 0" />
    </filter>
  </defs>
  <g
     style="filter:url(#filter1016)"
     stroke-width="1"
     stroke="none"
     id="Icons with numbers"
     fill-rule="evenodd"
     fill="none">
    <g
       transform="translate(-240.000000, -144.000000)"
       id="Group"
       fill="#000000">
      <path
         id="Oval 188"
         d="M248,158 C250.761424,158 253,155.761424 253,153 C253,151.364186 252.214451,149.911848 251,148.999634 L251,146.673631 C253.364945,147.797092 255,150.207602 255,153 C255,156.865993 251.865993,160 248,160 C244.134007,160 241,156.865993 241,153 C241,150.207602 242.635055,147.797092 245,146.673631 L245,148.999634 C243.785549,149.911848 243,151.364186 243,153 C243,155.761424 245.238576,158 248,158 Z M248,153 C247.443865,153 247,152.553614 247,152.00297 L247,145.99703 C247,145.453036 247.447715,145 248,145 C248.556135,145 249,145.446386 249,145.99703 L249,152.00297 C249,152.546964 248.552285,153 248,153 Z M248,153" />
    </g>
  </g>
</svg>
