<?xml version="1.0" encoding="UTF-8" standalone="no"?>
<svg
   xmlns:dc="http://purl.org/dc/elements/1.1/"
   xmlns:cc="http://creativecommons.org/ns#"
   xmlns:rdf="http://www.w3.org/1999/02/22-rdf-syntax-ns#"
   xmlns:svg="http://www.w3.org/2000/svg"
   xmlns="http://www.w3.org/2000/svg"
   xmlns:sodipodi="http://sodipodi.sourceforge.net/DTD/sodipodi-0.dtd"
   xmlns:inkscape="http://www.inkscape.org/namespaces/inkscape"
   inkscape:version="1.0 (4035a4fb49, 2020-05-01)"
   sodipodi:docname="iconfinder_moon_727677.svg"
   xml:space="preserve"
   width="512px"
   viewBox="0 0 512 512"
   version="1.1"
   id="Layer_1"
   height="512px"
   enable-background="new 0 0 512 512"><metadata
     id="metadata13"><rdf:RDF><cc:Work
         rdf:about=""><dc:format>image/svg+xml</dc:format><dc:type
           rdf:resource="http://purl.org/dc/dcmitype/StillImage" /></cc:Work></rdf:RDF></metadata><defs
     id="defs11"><filter
       id="filter21"
       inkscape:label="Lightness-Contrast"
       style="color-interpolation-filters:sRGB;"><feColorMatrix
         id="feColorMatrix19"
         values="1 0 0 1 -0 0 1 0 1 -0 0 0 1 1 -0 0 0 0 1 0" /></filter></defs><sodipodi:namedview
     inkscape:current-layer="Layer_1"
     inkscape:window-maximized="1"
     inkscape:window-y="38"
     inkscape:window-x="0"
     inkscape:cy="256"
     inkscape:cx="256"
     inkscape:zoom="1.4355469"
     showgrid="false"
     id="namedview9"
     inkscape:window-height="1000"
     inkscape:window-width="1916"
     inkscape:pageshadow="2"
     inkscape:pageopacity="0"
     guidetolerance="10"
     gridtolerance="10"
     objecttolerance="10"
     borderopacity="1"
     bordercolor="#666666"
     pagecolor="#ffffff" /><g
     style="filter:url(#filter21)"
     id="g6"><path
       id="path2"
       fill="#010101"
       d="M309.611,367.63c-91.043,0-164.835-73.801-164.835-164.863c0-62.778,35.49-116.695,87.115-144.532   C133.998,70.628,58.232,154.041,58.232,255.311c0,109.803,89.024,198.863,198.85,198.863c101.26,0,184.669-75.793,197.08-173.678   C426.316,332.149,372.376,367.63,309.611,367.63z" /><polygon
       id="polygon4"
       points="329.925,302.533 364.806,284.185 399.688,302.533 393.021,263.691 421.227,236.196 382.242,230.53    364.806,195.197 347.36,230.53 308.386,236.196 336.591,263.691  "
       fill="#010101" /></g></svg>
